<svg xmlns="http://www.w3.org/2000/svg" viewBox="0 0 320 200"><rect width="320" height="200" fill="#0b1220"/><rect x="20" y="10" width="280" height="180" rx="26" fill="#1e293b"/><rect x="28" y="18" width="264" height="164" rx="20" fill="#e0f2fe"/><path d="M28 100h264" stroke="#e11d48" stroke-opacity=".5" stroke-width="3"/><circle cx="160" cy="100" r="34" fill="none" stroke="#0ea5e9" stroke-opacity=".5" stroke-width="3"/><rect x="120" y="12" width="80" height="10" rx="4" fill="#0f172a"/><rect x="120" y="178" width="80" height="10" rx="4" fill="#0f172a"/><g><circle cx="120" cy="54" r="20" fill="#e11d48"/><circle cx="120" cy="54" r="12" fill="#fda4af"/><circle cx="120" cy="54" r="6" fill="#e11d48"/></g><g><circle cx="196" cy="146" r="20" fill="#0891b2"/><circle cx="196" cy="146" r="12" fill="#a5f3fc"/><circle cx="196" cy="146" r="6" fill="#0891b2"/></g><circle cx="168" cy="108" r="13" fill="#111827"/><circle cx="168" cy="108" r="8" fill="#374151"/><path d="M186 132l-10-12M198 120l-12-6" stroke="#0891b2" stroke-width="3" stroke-linecap="round" opacity=".6"/></svg>
