<svg xmlns="http://www.w3.org/2000/svg" viewBox="0 0 320 200"><rect width="320" height="200" fill="#052e16"/><rect x="30" y="16" width="260" height="168" rx="16" fill="#78350f"/><rect x="40" y="26" width="240" height="148" rx="10" fill="#16a34a"/><g fill="#fff" opacity=".06"><rect x="40" y="26" width="240" height="18"/><rect x="40" y="62" width="240" height="18"/><rect x="40" y="98" width="240" height="18"/><rect x="40" y="134" width="240" height="18"/></g><rect x="160" y="110" width="100" height="44" rx="18" fill="#fde68a"/><rect x="60" y="70" width="80" height="30" rx="8" fill="#0ea5e9"/><rect x="40" y="120" width="100" height="12" rx="3" fill="#92400e"/><circle cx="210" cy="60" r="16" fill="#fbbf24"/><circle cx="210" cy="60" r="9" fill="#f59e0b"/><circle cx="250" cy="44" r="9" fill="#020617"/><rect x="249" y="12" width="2" height="32" fill="#e2e8f0"/><path d="M251 12l18 6-18 6z" fill="#ef4444"/><path d="M110 156l60-60" stroke="#fde047" stroke-width="3" stroke-dasharray="6 6"/><circle cx="104" cy="160" r="7" fill="#fff"/></svg>
