<svg xmlns="http://www.w3.org/2000/svg" viewBox="0 0 320 200"><rect width="320" height="200" fill="#94a3b8"/><g fill="#64748b"><rect x="0" y="80" width="320" height="30"/><rect x="140" y="0" width="30" height="200"/></g><g fill="#f8fafc" opacity=".7"><rect x="10" y="94" width="20" height="3"/><rect x="50" y="94" width="20" height="3"/><rect x="200" y="94" width="20" height="3"/><rect x="260" y="94" width="20" height="3"/></g><g><rect x="20" y="10" width="50" height="50" fill="#e2e8f0"/><rect x="200" y="130" width="60" height="50" fill="#fca5a5"/><rect x="230" y="10" width="40" height="46" fill="#bfdbfe"/></g><circle cx="40" cy="160" r="12" fill="#16a34a"/><circle cx="100" cy="150" r="10" fill="#16a34a"/><rect x="190" y="90" width="26" height="14" rx="4" fill="#ef4444"/><ellipse cx="120" cy="140" rx="44" ry="40" fill="#0f172a"/><ellipse cx="120" cy="140" rx="44" ry="40" fill="none" stroke="#6366f1" stroke-width="5"/><rect x="104" y="118" width="18" height="10" rx="3" fill="#3b82f6" transform="rotate(30 113 123)"/><ellipse cx="240" cy="60" rx="20" ry="18" fill="#111"/><ellipse cx="240" cy="60" rx="20" ry="18" fill="none" stroke="#f97316" stroke-width="3"/></svg>
