<svg xmlns="http://www.w3.org/2000/svg" viewBox="0 0 320 200"><defs><linearGradient id="t" x1="0" y1="0" x2="0" y2="1"><stop offset="0" stop-color="#1e3a8a"/><stop offset="1" stop-color="#7dd3fc"/></linearGradient></defs><rect width="320" height="200" fill="url(#t)"/><g fill="#fff" opacity=".7"><ellipse cx="60" cy="60" rx="30" ry="8"/><ellipse cx="260" cy="90" rx="36" ry="9"/></g><path d="M0 12h320" stroke="#fde047" stroke-width="8"/><path d="M160 12 176 70" stroke="#334155" stroke-width="2"/><g transform="translate(176 76) rotate(-16)"><rect x="-34" y="0" width="68" height="26" fill="#b45309"/><g fill="#fde68a"><rect x="-26" y="6" width="10" height="12"/><rect x="-5" y="6" width="10" height="12"/><rect x="16" y="6" width="10" height="12"/></g></g><g><rect x="122" y="112" width="70" height="28" fill="#b45309"/><rect x="118" y="140" width="70" height="28" fill="#b45309"/><rect x="124" y="168" width="70" height="32" fill="#b45309"/></g><g fill="#fde68a"><rect x="130" y="119" width="10" height="12"/><rect x="152" y="119" width="10" height="12"/><rect x="174" y="119" width="10" height="12"/><rect x="126" y="147" width="10" height="12"/><rect x="148" y="147" width="10" height="12"/><rect x="170" y="147" width="10" height="12"/><rect x="132" y="176" width="10" height="12"/><rect x="154" y="176" width="10" height="12"/><rect x="176" y="176" width="10" height="12"/></g></svg>
