<svg xmlns="http://www.w3.org/2000/svg" viewBox="0 0 320 200"><defs><linearGradient id="b" x1="0" y1="0" x2="0" y2="1"><stop offset="0" stop-color="#312e81"/><stop offset="1" stop-color="#0a0a1a"/></linearGradient></defs><rect width="320" height="200" fill="url(#b)"/><g><g fill="#60a5fa"><rect x="36" y="24" width="30" height="13" rx="3"/><rect x="70" y="24" width="30" height="13" rx="3"/><rect x="104" y="24" width="30" height="13" rx="3"/><rect x="186" y="24" width="30" height="13" rx="3"/><rect x="220" y="24" width="30" height="13" rx="3"/><rect x="254" y="24" width="30" height="13" rx="3"/></g><g fill="#c084fc"><rect x="36" y="41" width="30" height="13" rx="3"/><rect x="70" y="41" width="30" height="13" rx="3"/><rect x="104" y="41" width="30" height="13" rx="3"/><rect x="138" y="41" width="30" height="13" rx="3"/><rect x="220" y="41" width="30" height="13" rx="3"/><rect x="254" y="41" width="30" height="13" rx="3"/></g><g fill="#f472b6"><rect x="36" y="58" width="30" height="13" rx="3"/><rect x="104" y="58" width="30" height="13" rx="3"/><rect x="138" y="58" width="30" height="13" rx="3"/><rect x="186" y="58" width="30" height="13" rx="3"/><rect x="254" y="58" width="30" height="13" rx="3"/></g></g><g fill="#fff" opacity=".6"><circle cx="176" cy="36" r="3"/><circle cx="190" cy="46" r="2"/><circle cx="170" cy="50" r="2.5"/></g><path d="M175 120 205 80" stroke="#fff" stroke-dasharray="3 5" opacity=".4" stroke-width="2"/><circle cx="170" cy="126" r="7" fill="#fff"/><rect x="130" y="172" width="80" height="11" rx="5.5" fill="#f9a8d4"/><rect x="232" y="120" width="28" height="15" rx="7.5" fill="#60a5fa"/><text x="246" y="131" font-family="Arial" font-weight="900" font-size="11" text-anchor="middle" fill="#0f172a">W</text></svg>
