<svg xmlns="http://www.w3.org/2000/svg" viewBox="0 0 320 200"><defs><linearGradient id="t" x1="0" y1="0" x2="0" y2="1"><stop offset="0" stop-color="#1e293b"/><stop offset="1" stop-color="#020617"/></linearGradient></defs><rect width="320" height="200" fill="#f8fafc"/><g fill="#e2e8f0"><rect x="80" width="1" height="200"/><rect x="160" width="1" height="200"/><rect x="240" width="1" height="200"/><rect y="50" width="320" height="1"/><rect y="120" width="320" height="1"/></g><rect x="2" y="-18" width="76" height="66" rx="5" fill="url(#t)"/><rect x="162" y="52" width="76" height="66" rx="5" fill="url(#t)"/><rect x="82" y="122" width="76" height="66" rx="5" fill="#0f172a" opacity=".15"/><rect x="242" y="122" width="76" height="80" rx="5" fill="url(#t)"/><g fill="#6366f1"><path d="M190 70v26a6 6 0 1 1-3-5V74l14-3v18a6 6 0 1 1-3-5V76z" fill="#e2e8f0"/></g><text x="160" y="36" font-family="Arial" font-weight="900" font-size="28" text-anchor="middle" fill="#ef4444" stroke="#fff" stroke-width="4" paint-order="stroke">87</text></svg>
