<svg xmlns="http://www.w3.org/2000/svg" viewBox="0 0 320 200"><defs><radialGradient id="bg" cx=".5" cy=".4" r=".8"><stop offset="0" stop-color="#4c1d95"/><stop offset="1" stop-color="#0b0718"/></radialGradient><radialGradient id="t" cx=".5" cy=".5" r=".5"><stop offset="0" stop-color="#c4b5fd"/><stop offset="1" stop-color="#6d28d9"/></radialGradient></defs><rect width="320" height="200" fill="url(#bg)"/><g transform="translate(160 86)"><g fill="#f5f3ff"><g transform="rotate(20)"><rect x="-3" y="44" width="6" height="40" rx="3"/><circle cy="86" r="7" fill="#c084fc"/></g><g transform="rotate(140)"><rect x="-3" y="44" width="6" height="40" rx="3"/><circle cy="86" r="7" fill="#c084fc"/></g><g transform="rotate(250)"><rect x="-3" y="44" width="6" height="40" rx="3"/><circle cy="86" r="7" fill="#c084fc"/></g></g><circle r="48" fill="url(#t)"/><g fill="none" stroke="#fff" stroke-opacity=".2" stroke-width="2"><circle r="12"/><circle r="24"/><circle r="36"/></g><rect x="-7" y="-50" width="14" height="14" rx="3" fill="#fde047" transform="rotate(45 0 -43) translate(30 10)"/></g><g transform="translate(160 150)" fill="#f5f3ff"><path d="M-3 0 0-8 3 0z"/><rect x="-3" width="6" height="36" rx="3"/><circle cy="40" r="7" fill="#c084fc"/></g><path d="M112 40a60 60 0 0 1 20-20" stroke="#a78bfa" stroke-width="3" fill="none" stroke-linecap="round" opacity=".7"/></svg>
