<svg xmlns="http://www.w3.org/2000/svg" viewBox="0 0 320 200"><rect width="320" height="200" fill="#166534"/><g fill="#15803d"><circle cx="20" cy="30" r="16"/><circle cx="18" cy="140" r="16"/><circle cx="300" cy="80" r="16"/><circle cx="302" cy="180" r="16"/></g><rect x="50" width="220" height="200" fill="#374151"/><rect x="54" width="4" height="200" fill="#f8fafc"/><rect x="262" width="4" height="200" fill="#f8fafc"/><g fill="#f8fafc" opacity=".7"><rect x="103" y="0" width="4" height="26"/><rect x="103" y="50" width="4" height="26"/><rect x="103" y="100" width="4" height="26"/><rect x="103" y="150" width="4" height="26"/><rect x="158" y="20" width="4" height="26"/><rect x="158" y="70" width="4" height="26"/><rect x="158" y="120" width="4" height="26"/><rect x="158" y="170" width="4" height="26"/><rect x="213" y="0" width="4" height="26"/><rect x="213" y="50" width="4" height="26"/><rect x="213" y="100" width="4" height="26"/><rect x="213" y="150" width="4" height="26"/></g><g><rect x="118" y="20" width="30" height="54" rx="8" fill="#ef4444"/><rect x="122" y="54" width="22" height="10" rx="3" fill="#0f172a" opacity=".7"/><rect x="228" y="60" width="32" height="90" rx="6" fill="#94a3b8"/><rect x="66" y="80" width="30" height="54" rx="8" fill="#3b82f6"/><rect x="70" y="114" width="22" height="10" rx="3" fill="#0f172a" opacity=".7"/></g><g><rect x="170" y="118" width="32" height="58" rx="9" fill="#fbbf24"/><rect x="174" y="132" width="24" height="11" rx="3" fill="#0f172a" opacity=".75"/><rect x="172" y="119" width="7" height="3" fill="#fef9c3"/><rect x="193" y="119" width="7" height="3" fill="#fef9c3"/></g><path d="M166 110l-8-6M206 110l8-6" stroke="#fde047" stroke-width="3" stroke-linecap="round"/><circle cx="130" cy="150" r="7" fill="#facc15"/><circle cx="130" cy="172" r="7" fill="#facc15"/></svg>
