<svg xmlns="http://www.w3.org/2000/svg" viewBox="0 0 320 200"><defs><linearGradient id="b" x1="0" y1="0" x2="1" y2="1"><stop offset="0" stop-color="#1d4ed8"/><stop offset="1" stop-color="#6d28d9"/></linearGradient><linearGradient id="l" x1="0" y1="0" x2="1" y2="1"><stop offset="0" stop-color="#60a5fa"/><stop offset="1" stop-color="#6d28d9"/></linearGradient></defs><rect width="320" height="200" fill="url(#b)"/><g font-family="Arial,sans-serif" font-weight="900" text-anchor="middle"><g fill="#e0e7ff"><rect x="86" y="36" width="34" height="40" rx="8"/><rect x="124" y="36" width="34" height="40" rx="8"/><rect x="162" y="36" width="34" height="40" rx="8"/><rect x="200" y="36" width="34" height="40" rx="8"/></g><g fill="#1e1b4b" font-size="24"><text x="103" y="64">W</text><text x="141" y="64">O</text><text x="179" y="64">R</text><text x="217" y="64">D</text></g><g fill="url(#l)"><circle cx="46" cy="136" r="19"/><circle cx="84" cy="136" r="19"/><circle cx="122" cy="136" r="19"/><circle cx="160" cy="136" r="19" opacity=".3"/><circle cx="198" cy="136" r="19" opacity=".3"/><circle cx="236" cy="136" r="19"/><circle cx="274" cy="136" r="19" opacity=".3"/></g><g fill="#fff" font-size="18"><text x="46" y="143">S</text><text x="84" y="143">T</text><text x="122" y="143">A</text><text x="160" y="143">W</text><text x="198" y="143">O</text><text x="236" y="143">E</text><text x="274" y="143">R</text></g></g><rect x="112" y="170" width="96" height="18" rx="9" fill="#22c55e"/></svg>
