<svg xmlns="http://www.w3.org/2000/svg" viewBox="0 0 320 200"><defs><linearGradient id="m" x1="0" y1="0" x2="1" y2="1"><stop offset="0" stop-color="#0ea5e9"/><stop offset="1" stop-color="#7c3aed"/></linearGradient></defs><rect width="320" height="200" fill="url(#m)"/><rect x="70" y="30" width="180" height="164" rx="10" fill="rgba(0,0,0,.3)"/><g font-family="sans-serif" font-weight="900" text-anchor="middle" fill="#fff"><rect x="76" y="156" width="32" height="32" rx="7" fill="#f472b6"/><text x="92" y="178" font-size="14">2</text><rect x="112" y="156" width="32" height="32" rx="7" fill="#38bdf8"/><text x="128" y="178" font-size="14">4</text><rect x="148" y="156" width="32" height="32" rx="7" fill="#fde047"/><text x="164" y="178" font-size="14" fill="#1e1b4b">8</text><rect x="148" y="120" width="32" height="32" rx="7" fill="#22c55e"/><text x="164" y="142" font-size="12">16</text><rect x="184" y="156" width="32" height="32" rx="7" fill="#f97316"/><text x="200" y="178" font-size="12">32</text><rect x="220" y="156" width="32" height="32" rx="7" fill="#a855f7"/><text x="236" y="178" font-size="12">64</text><rect x="112" y="38" width="32" height="32" rx="7" fill="#38bdf8"/><text x="128" y="60" font-size="14">4</text></g><path d="M128 76v30" stroke="#fff" stroke-width="3" stroke-dasharray="4 5"/></svg>
