<svg xmlns="http://www.w3.org/2000/svg" viewBox="0 0 320 200"><defs><linearGradient id="s" x1="0" y1="0" x2="0" y2="1"><stop offset="0" stop-color="#7dd3fc"/><stop offset="1" stop-color="#fde68a"/></linearGradient></defs><rect width="320" height="120" fill="url(#s)"/><rect y="110" width="320" height="90" fill="#a16207"/><rect y="150" width="320" height="50" fill="#854d0e"/><g><circle cx="60" cy="104" r="12" fill="#fff"/><circle cx="60" cy="104" r="8" fill="#dc2626"/><circle cx="60" cy="104" r="3" fill="#fff"/><rect x="58" y="116" width="4" height="10" fill="#57534e"/></g><g><circle cx="270" cy="140" r="16" fill="#fff"/><circle cx="270" cy="140" r="11" fill="#2563eb"/><circle cx="270" cy="140" r="4" fill="#fff"/></g><circle cx="170" cy="96" r="52" fill="#0b0b0b" opacity=".9"/><circle cx="170" cy="96" r="46" fill="#7dd3fc"/><rect x="124" y="96" width="92" height="50" fill="#a16207" opacity=".9"/><circle cx="170" cy="100" r="22" fill="#fff"/><circle cx="170" cy="100" r="15" fill="#dc2626"/><circle cx="170" cy="100" r="6" fill="#fff"/><path d="M170 50v92M124 96h92" stroke="#111" stroke-width="2"/><circle cx="170" cy="96" r="46" fill="none" stroke="#111" stroke-width="6"/></svg>
