<svg xmlns="http://www.w3.org/2000/svg" viewBox="0 0 320 200"><rect width="320" height="200" fill="#0b1026"/><g stroke="#22d3ee" stroke-opacity=".08"><path d="M60 20h200M60 60h200M60 100h200M60 140h200M60 180h200"/></g><rect width="60" height="200" fill="#312e81"/><rect x="260" width="60" height="200" fill="#312e81"/><rect x="57" width="3" height="200" fill="#22d3ee"/><rect x="260" width="3" height="200" fill="#22d3ee"/><path d="M60 30l22 10-22 10 22 10-22 10 22 10-22 10z" fill="#f43f5e"/><path d="M260 120l-22 10 22 10-22 10 22 10-22 10 22 10z" fill="#f43f5e"/><g transform="translate(160 70) rotate(20)"><path d="M0-22 5-15 13-18 12-10 20-7 15 0 20 7 12 10 13 18 5 15 0 22-5 15-13 18-12 10-20 7-15 0-20-7-12-10-13-18-5-15z" fill="#e2e8f0"/><circle r="5" fill="#64748b"/></g><g fill="#22d3ee" opacity=".25"><rect x="170" y="150" width="26" height="26" rx="6"/><rect x="130" y="160" width="26" height="26" rx="6" opacity=".6"/></g><rect x="206" y="140" width="30" height="30" rx="7" fill="#a5f3fc"/><rect x="212" y="146" width="18" height="18" rx="4" fill="#0891b2"/><g fill="#fde047"><circle cx="85" cy="120" r="7"/><circle cx="85" cy="145" r="7"/><circle cx="85" cy="170" r="7"/></g></svg>
